<svg enable-background="new 0 0 720 91.61" viewBox="0 0 720 91.61" xmlns="http://www.w3.org/2000/svg"><g fill="#012169"><path d="m16.52 89c-1.86 0-4.12.13-6.25.27-2.13.13-4.12.27-5.76.27-.66 0-2.39 0-2.39-1.32 0-1.07.96-2.26 4.91-2.88 2.88-.53 5.98-.96 5.98-8.64v-62.52c0-2.52-5.59-2.26-9.03-2.52-3.05-.28-3.98-.28-3.98-1.74 0-2.26 3.59-2.26 5.18-2.26h12.1c3.32 0 6.51-.27 9.84-.4s7.18-.4 11.43-.4c27.91 0 50.5 13.82 50.5 45.86 0 19.93-18.34 36.28-41.2 36.28zm7.98-16.61c0 9.3 8.37 13.44 17.01 13.44 10.37 0 35.09-8.64 35.09-35.62 0-27.24-24.46-39.36-40.93-39.36-10.89 0-11.16 2.39-11.16 4.25v57.29z"/><path d="m100.31 72.72c0-8.11.27-20.48.27-28.34 0-1.86-2.27-2.13-3.84-2.52-3.2-.8-3.99-1.07-3.99-2 0-1.2 1.46-1.2 3.32-1.2s3.72.27 5.76.27 3.84-.27 5.86-.27c1.73 0 2 .66 2 2.52 0 11.84-.27 23.68-.27 35.52 0 5.45 3.99 8.51 10.51 8.51 14.76 0 15.83-6.25 15.96-11.71 0-9.45.27-19.03.27-28.47 0-1.59-.66-1.59-6.92-3.2-1.07-.27-3.84-1.07-3.84-2.13 0-.8 1.46-1.07 2.88-1.07 2.27 0 4.52.27 6.79.27 2.66 0 5.18-.27 7.85-.27 1.43-.11 2.68.96 2.79 2.39.01.13.01.27 0 .4 0 13.44-.53 26.88-.53 40.32 0 2.79 2.27 3.2 3.46 3.2 5.18 0 6.92 0 6.92 1.33 0 1.07-.66 1.33-2.66 1.59-9.31 1.46-14.76 2.66-15.96 2.66s-1.07-.96-1.07-2.13v-3.05c0-1.07-.27-1.59-.96-1.59-2.13 0-7.85 7.85-18.62 7.85-12.52.01-15.98-7.57-15.98-18.88z"/><path d="m166.83 13.45c0-7.05-6.52-4.8-6.52-7.31 0-.96.96-1.2 2.79-1.86l9.02-3.45c.73-.23 1.49-.32 2.26-.27.66 0 1.46.4 1.46 2.39v54.64c0 1.46.27 2.13 1.2 2.13 1.32 0 21.67-11.96 21.67-14.4 0-3.46-5.05-3.46-5.05-5.45 0-.66 1.07-1.32 1.86-1.32 2.79 0 6.78.27 10.23.27 3.46 0 7.31-.27 9.97-.27 1.2 0 2.52.27 2.52 1.59s-4.66 2.39-6.52 3.19c-3.84 1.73-25.66 14.4-25.66 15.82.07.75.46 1.42 1.07 1.86l23.04 20.87c5.45 4.91 10.5 4.52 10.5 6.38 0 .66-1.32 1.32-3.46 1.32-2.79 0-6.25-.53-10.23-.53-3.46 0-6.64.53-9.84.53-2.79 0-3.98-.13-3.98-1.32s1.59-1.59 3.84-1.86c1.32-.13 2.52-.96 2.52-1.86 0-.66-.66-1.32-1.46-2.13l-20.07-18.97c-.32-.37-.73-.65-1.2-.8-.53 0-.96.13-.96.66v18.88c-.19 1.93 1.02 3.72 2.88 4.25 2.13.66 3.84.66 3.84 1.86s-1.73 1.32-3.05 1.32c-3.19 0-5.98-.53-8.91-.53-3.19 0-7.31.53-9.6.53-.8 0-3.19-.13-3.19-1.32s1.07-1.46 2.39-1.86c3.72-1.07 6.52-.66 6.52-6.25z"/><path d="m229.49 58.25c-.27 1.54-.36 3.1-.27 4.66 0 11.18 3.06 22.24 19.3 22.24 10.25 0 10.56-5.33 12.65-5.33.6-.06 1.13.38 1.19.97v.09c0 .96-5.6 10.65-19.44 10.65-14.65 0-23.04-10.39-23.04-27.03 0-12.48 7.68-28.1 24.24-28.1 10.8-.34 19.89 7.99 20.5 18.78 0 2.4-.4 3.06-2.66 3.06h-32.47zm26.37-10.56c0-4.53-4.26-8.12-9.85-8.12-9.6 0-15.36 9.32-15.36 13.44 0 .96.27 1.2 11.59 1.2 11.76.04 13.62-1.69 13.62-6.48z"/><path d="m293.72.54h1.19v91.07h-1.19z"/><path d="m347.31 11.56c0 3.23-1.03 5.7-3.1 7.42s-5.02 2.58-8.84 2.58h-3.15v11.56h-4.95v-30.9h8.71c3.78 0 6.61.79 8.5 2.37 1.88 1.57 2.83 3.9 2.83 6.97zm-15.09 5.75h2.63c2.54 0 4.4-.45 5.59-1.35s1.78-2.31 1.78-4.23c0-1.77-.53-3.1-1.59-3.97s-2.72-1.31-4.97-1.31h-3.44z"/><path d="m360.5 20.77v12.34h-4.95v-30.89h8.55c3.91 0 6.8.75 8.67 2.24s2.81 3.75 2.81 6.76c0 3.85-1.96 6.59-5.88 8.22l8.55 13.67h-5.63l-7.24-12.34zm0-4.18h3.44c2.3 0 3.97-.44 5.01-1.31 1.03-.87 1.55-2.17 1.55-3.89 0-1.75-.56-3-1.68-3.76s-2.8-1.14-5.05-1.14h-3.27z"/><path d="m406.16 33.11-3.02-8.58h-11.57l-2.96 8.58h-5.22l11.32-31.02h5.38l11.32 31.02zm-4.32-12.93-2.84-8.41c-.21-.56-.49-1.45-.86-2.66s-.62-2.1-.76-2.66c-.37 1.73-.92 3.63-1.64 5.68l-2.73 8.05z"/><path d="m426.37 33.11h-4.95v-26.56h-8.9v-4.33h22.75v4.33h-8.9z"/><path d="m454.26 33.11h-4.95v-26.56h-8.9v-4.33h22.75v4.33h-8.9z"/><path d="m502.27 24.72c0 2.75-.97 4.9-2.92 6.47-1.95 1.56-4.63 2.35-8.05 2.35s-6.22-.54-8.4-1.63v-4.78c1.38.66 2.85 1.18 4.4 1.56s3 .57 4.34.57c1.96 0 3.4-.38 4.34-1.14.93-.76 1.4-1.78 1.4-3.06 0-1.16-.43-2.13-1.28-2.94-.86-.8-2.62-1.75-5.3-2.85-2.76-1.14-4.71-2.44-5.84-3.91s-1.7-3.23-1.7-5.28c0-2.58.9-4.61 2.69-6.09s4.2-2.22 7.22-2.22c2.9 0 5.78.65 8.65 1.94l-1.57 4.12c-2.69-1.16-5.09-1.73-7.2-1.73-1.6 0-2.82.36-3.64 1.07-.83.71-1.24 1.65-1.24 2.82 0 .8.17 1.49.5 2.06s.88 1.11 1.64 1.62 2.13 1.18 4.1 2.01c2.22.94 3.85 1.82 4.88 2.64s1.79 1.74 2.28 2.77c.46 1.03.7 2.24.7 3.63z"/><path d="m524.05 6.11c-2.84 0-5.08 1.03-6.71 3.09s-2.44 4.9-2.44 8.52c0 3.79.78 6.66 2.35 8.6s3.83 2.92 6.8 2.92c1.28 0 2.53-.13 3.73-.39s2.45-.6 3.75-1v4.33c-2.37.92-5.06 1.37-8.07 1.37-4.43 0-7.83-1.37-10.2-4.11s-3.56-6.66-3.56-11.76c0-3.21.58-6.02 1.73-8.43s2.82-4.25 5-5.54 4.74-1.92 7.68-1.92c3.09 0 5.95.66 8.57 1.99l-1.78 4.21c-1.02-.49-2.1-.93-3.24-1.3-1.15-.4-2.35-.58-3.61-.58z"/><path d="m564.11 33.11h-4.97v-13.92h-13.95v13.93h-4.95v-30.9h4.95v12.64h13.95v-12.64h4.97z"/><path d="m602.93 17.62c0 5.03-1.23 8.94-3.69 11.73s-5.95 4.18-10.46 4.18c-4.57 0-8.08-1.38-10.53-4.15s-3.67-6.7-3.67-11.8 1.23-9.02 3.69-11.75 5.98-4.1 10.55-4.1c4.5 0 7.98 1.39 10.43 4.16 2.45 2.78 3.68 6.69 3.68 11.73zm-23.1 0c0 3.8.75 6.69 2.26 8.65s3.73 2.95 6.69 2.95c2.94 0 5.16-.97 6.65-2.92s2.25-4.84 2.25-8.68c0-3.79-.74-6.66-2.23-8.62s-3.69-2.94-6.63-2.94c-2.97 0-5.21.98-6.72 2.94s-2.27 4.83-2.27 8.62z"/><path d="m637.64 17.62c0 5.03-1.23 8.94-3.69 11.73s-5.95 4.18-10.46 4.18c-4.57 0-8.08-1.38-10.53-4.15s-3.67-6.7-3.67-11.8 1.23-9.02 3.69-11.75 5.98-4.1 10.55-4.1c4.5 0 7.98 1.39 10.43 4.16s3.68 6.69 3.68 11.73zm-23.1 0c0 3.8.75 6.69 2.26 8.65s3.73 2.95 6.69 2.95c2.94 0 5.16-.97 6.65-2.92s2.25-4.84 2.25-8.68c0-3.79-.74-6.66-2.23-8.62s-3.69-2.94-6.63-2.94c-2.97 0-5.21.98-6.72 2.94s-2.27 4.83-2.27 8.62z"/><path d="m647.19 33.11v-30.89h4.95v26.56h12.81v4.33z"/><path d="m690.92 9.66c2.62 0 4.69.79 6.21 2.38s2.28 3.76 2.28 6.54c0 2.65-.5 5.15-1.49 7.5s-2.34 4.17-4.04 5.45-3.62 1.92-5.75 1.92c-2.65 0-4.73-.8-6.23-2.39s-2.26-3.77-2.26-6.53c0-2.68.5-5.19 1.51-7.55s2.37-4.17 4.08-5.43 3.61-1.89 5.69-1.89zm4.88 8.43c0-1.62-.43-2.93-1.29-3.94s-2.03-1.51-3.51-1.51c-1.5 0-2.85.52-4.05 1.56-1.19 1.04-2.12 2.49-2.77 4.34s-.98 3.91-.98 6.18c0 1.85.44 3.27 1.31 4.28.88 1.01 2.14 1.51 3.78 1.51 1.44 0 2.73-.51 3.87-1.54 1.15-1.03 2.04-2.49 2.68-4.38.64-1.9.96-4.06.96-6.5z"/><path d="m699.24 43.51c-.95 0-1.81-.15-2.59-.44v-2.98c.88.31 1.66.46 2.32.46 1.05 0 1.86-.44 2.42-1.31.57-.87 1.02-2.12 1.37-3.74l4.7-22.86h-3.99l.27-1.42 4.26-1.39.48-2.11c.63-2.82 1.51-4.81 2.64-5.97 1.12-1.16 2.79-1.74 5-1.74.55 0 1.23.08 2.03.24s1.42.34 1.86.54l-.89 2.73c-1.05-.41-1.99-.61-2.84-.61-1.2 0-2.12.34-2.76 1.02s-1.16 1.93-1.56 3.75l-.52 2.28h4.93l-.52 2.68h-4.91l-4.8 23.2c-.54 2.66-1.37 4.61-2.48 5.83s-2.6 1.84-4.42 1.84z"/><path d="m347.51 90.53h-20.24v-36.53h20.24v5.05h-14.39v9.95h13.49v5h-13.49v11.47h14.39z"/><path d="m391.6 90.53h-7.17l-17.6-29.11h-.2l.12 1.62c.23 3.1.34 5.93.34 8.5v18.99h-5.31v-36.53h7.1l17.55 28.96h.15c-.03-.38-.1-1.78-.2-4.19s-.15-4.29-.15-5.64v-19.13h5.36v36.53z"/><path d="m419.22 70.71h13.17v18.34c-2.15.72-4.22 1.22-6.21 1.52-1.98.3-4.12.45-6.43.45-5.42 0-9.6-1.64-12.53-4.91-2.94-3.27-4.41-7.89-4.41-13.86 0-5.88 1.66-10.48 4.97-13.81 3.31-3.32 7.87-4.99 13.68-4.99 3.74 0 7.28.73 10.62 2.2l-2.06 4.97c-2.9-1.37-5.81-2.05-8.71-2.05-3.82 0-6.84 1.22-9.06 3.67s-3.33 5.8-3.33 10.05c0 4.46 1 7.86 3 10.18s4.88 3.49 8.63 3.49c1.89 0 3.92-.24 6.07-.72v-9.42h-7.42v-5.11z"/><path d="m448.52 90.53v-36.53h5.85v36.53z"/><path d="m501.17 90.53h-7.17l-17.6-29.11h-.2l.12 1.62c.23 3.1.34 5.93.34 8.5v18.99h-5.31v-36.53h7.1l17.55 28.96h.15c-.03-.38-.1-1.78-.2-4.19s-.15-4.29-.15-5.64v-19.13h5.36v36.53z"/><path d="m537.41 90.53h-20.25v-36.53h20.25v5.05h-14.39v9.95h13.49v5h-13.49v11.47h14.39z"/><path d="m571.93 90.53h-20.24v-36.53h20.24v5.05h-14.39v9.95h13.49v5h-13.49v11.47h14.39z"/><path d="m591.05 75.94v14.59h-5.85v-36.53h10.11c4.62 0 8.04.88 10.26 2.65s3.33 4.43 3.33 8c0 4.55-2.32 7.79-6.95 9.72l10.11 16.17h-6.66l-8.57-14.59h-5.78zm0-4.95h4.06c2.73 0 4.7-.52 5.92-1.55s1.84-2.57 1.84-4.6c0-2.07-.66-3.55-1.98-4.45s-3.31-1.35-5.97-1.35h-3.87z"/><path d="m624.78 90.53v-36.53h5.85v36.53z"/><path d="m677.44 90.53h-7.17l-17.6-29.11h-.2l.12 1.62c.23 3.1.34 5.93.34 8.5v18.99h-5.31v-36.53h7.1l17.55 28.96h.15c-.03-.38-.1-1.78-.2-4.19s-.15-4.29-.15-5.64v-19.13h5.36v36.53z"/><path d="m705.05 70.71h13.17v18.34c-2.15.72-4.22 1.22-6.21 1.52-1.98.3-4.12.45-6.43.45-5.42 0-9.6-1.64-12.53-4.91-2.94-3.27-4.41-7.89-4.41-13.86 0-5.88 1.66-10.48 4.97-13.81 3.31-3.32 7.87-4.99 13.68-4.99 3.74 0 7.28.73 10.62 2.2l-2.06 4.97c-2.9-1.37-5.81-2.05-8.71-2.05-3.82 0-6.84 1.22-9.06 3.67s-3.33 5.8-3.33 10.05c0 4.46 1 7.86 3 10.18s4.88 3.49 8.63 3.49c1.89 0 3.92-.24 6.07-.72v-9.42h-7.42v-5.11z"/></g></svg>