<?xml version="1.0" encoding="utf-8"?>
<!-- Generator: Adobe Illustrator 19.0.0, SVG Export Plug-In . SVG Version: 6.00 Build 0)  -->
<svg version="1.1" id="Layer_1" xmlns="http://www.w3.org/2000/svg" xmlns:xlink="http://www.w3.org/1999/xlink" x="0px" y="0px"
	 width="125px" height="60px" viewBox="-100 0 125 60" style="enable-background:new -100 0 125 60;" xml:space="preserve">
<style type="text/css">
	.st0{fill:#FFFFFF;}
</style>
<g>
	<path class="st0" d="M-92.9,56.8c-1.7,0-2.6-1.1-2.6-3v-4h1v4c0,1.3,0.5,2,1.6,2s1.6-0.7,1.6-1.9v-4h1v4
		C-90.3,55.8-91.2,56.8-92.9,56.8"/>
	<path class="st0" d="M-77.5,56.7l-2.7-4.3c-0.2-0.3-0.4-0.7-0.5-0.8c0,0.3,0,1.2,0,1.6v3.6h-1v-6.9h1.1l2.6,4.2
		c0.2,0.3,0.5,0.8,0.6,1c0-0.3,0-1.2,0-1.6V50h1v6.9h-1.1"/>
	<rect x="-67.8" y="49.9" class="st0" width="1" height="6.9"/>
	<path class="st0" d="M-55.2,56.7h-1.1l-2.4-6.9h1.1l1.4,4.4c0.1,0.4,0.3,1,0.4,1.3c0.1-0.2,0.3-0.9,0.4-1.3l1.4-4.4h1.1L-55.2,56.7
		"/>
	<polyline class="st0" points="-44.7,56.7 -44.7,49.9 -40.3,49.9 -40.3,50.9 -43.6,50.9 -43.6,52.6 -41.7,52.6 -41.7,53.6 
		-43.6,53.6 -43.6,55.7 -40.1,55.7 -40.1,56.7 -44.7,56.7 	"/>
	<path class="st0" d="M-28.2,54l1.4,2.8h-1.1l-1.4-2.7h-1.6v2.7h-1v-6.9h3c1.2,0,2.2,0.6,2.2,2.1C-26.6,53.1-27.2,53.8-28.2,54
		 M-28.9,50.9h-2v2.2h2c0.7,0,1.2-0.4,1.2-1.1S-28.2,50.9-28.9,50.9z"/>
	<path class="st0" d="M-16.2,56.8c-1,0-1.9-0.4-2.4-1.1l0.7-0.7c0.5,0.5,1.1,0.8,1.8,0.8c1,0,1.4-0.3,1.4-1c0-0.5-0.4-0.8-1.6-1.1
		c-1.5-0.4-2.1-0.8-2.1-2s1-1.9,2.3-1.9c0.9,0,1.6,0.3,2.2,0.9l-0.7,0.7c-0.4-0.4-0.9-0.7-1.6-0.7c-0.8,0-1.2,0.4-1.2,0.9
		s0.3,0.7,1.5,1.1c1.4,0.4,2.2,0.8,2.2,2.1C-13.7,56-14.5,56.8-16.2,56.8"/>
	<rect x="-5.3" y="49.9" class="st0" width="1" height="6.9"/>
	<polyline class="st0" points="6.9,50.9 6.9,56.7 5.9,56.7 5.9,50.9 3.9,50.9 3.9,49.9 8.9,49.9 8.9,50.9 6.9,50.9 	"/>
	<path class="st0" d="M20.1,54.1v2.7h-1v-2.7l-2.5-4.2h1.2l1.1,1.9c0.2,0.4,0.6,1.1,0.7,1.4c0.1-0.3,0.5-0.9,0.7-1.4l1.1-1.9h1.2
		L20.1,54.1"/>
	<path class="st0" d="M-92.1,44.9c-0.9,0-1.9,0-3,0.1s-2,0.1-2.7,0.1c-0.2,0-0.4,0-0.7-0.1c-0.3,0-0.4-0.2-0.4-0.5s0.1-0.5,0.4-0.8
		s0.9-0.5,1.9-0.6c0.3,0,0.7-0.1,1-0.2s0.6-0.3,0.9-0.6c0.3-0.3,0.5-0.7,0.7-1.2s0.3-1.2,0.3-2.1V9.6c0-0.3-0.1-0.5-0.4-0.7
		s-0.7-0.3-1.1-0.3c-0.4-0.1-0.9-0.1-1.4-0.1s-0.9-0.1-1.4-0.1c-0.7-0.1-1.2-0.2-1.5-0.2c-0.3-0.1-0.4-0.3-0.4-0.6
		c0-0.3,0.1-0.5,0.3-0.6c0.2-0.1,0.4-0.3,0.7-0.3c0.3-0.1,0.5-0.1,0.8-0.1s0.5,0,0.7,0h5.7c1.6,0,3.1-0.1,4.7-0.2s3.4-0.2,5.4-0.2
		c3.3,0,6.4,0.4,9.3,1.3c2.9,0.8,5.4,2.1,7.5,3.9c2.2,1.8,3.9,4,5.2,6.8c1.3,2.8,1.9,6,1.9,9.7c0,2.4-0.5,4.6-1.6,6.7
		c-1,2.1-2.4,3.9-4.2,5.5c-1.8,1.6-3.8,2.8-6.2,3.7c-2.4,0.9-4.9,1.4-7.5,1.4L-92.1,44.9 M-88.4,37.1c0,1.1,0.2,2,0.7,2.8
		s1.1,1.5,1.8,2c0.8,0.5,1.6,0.9,2.6,1.2c1,0.3,2,0.4,3,0.4c0.8,0,1.8-0.1,3-0.4c1.1-0.3,2.3-0.6,3.5-1.2c1.2-0.5,2.5-1.2,3.7-2.1
		s2.3-1.9,3.3-3.2c1-1.2,1.8-2.7,2.3-4.4c0.6-1.7,0.9-3.6,0.9-5.7s-0.3-4.1-0.9-5.9s-1.4-3.3-2.4-4.7c-1-1.4-2.2-2.6-3.5-3.6
		s-2.7-1.9-4.2-2.5C-76,9.1-77.5,8.6-79,8.3s-2.9-0.5-4.2-0.5c-1.3,0-2.3,0.1-3,0.2s-1.2,0.3-1.6,0.5c-0.3,0.2-0.5,0.4-0.6,0.7
		c-0.1,0.3-0.1,0.5-0.1,0.7L-88.4,37.1L-88.4,37.1z"/>
	<path class="st0" d="M-45.1,46c-1.5,0-2.7-0.2-3.7-0.6c-1-0.4-1.8-1-2.3-1.8c-0.6-0.8-1-1.8-1.2-2.8c-0.2-1.1-0.3-2.3-0.3-3.7
		c0-1,0-2,0-3.2s0-2.4,0-3.5c0-1.2,0-2.4,0-3.6s0-2.2,0-3.1c0-0.5-0.2-0.8-0.6-0.9s-0.8-0.2-1.2-0.3c-0.8-0.2-1.3-0.4-1.5-0.5
		c-0.3-0.1-0.4-0.3-0.4-0.5c0-0.3,0.1-0.5,0.4-0.5s0.7-0.1,1.1-0.1c0.5,0,0.9,0,1.4,0.1c0.4,0,0.9,0.1,1.4,0.1s0.9,0,1.4-0.1
		c0.5,0,0.9-0.1,1.4-0.1c0.4,0,0.7,0.1,0.8,0.3c0.1,0.2,0.2,0.5,0.2,0.9c0,2.8,0,5.6-0.1,8.3c0,2.8-0.1,5.6-0.1,8.3
		c0,1.3,0.4,2.3,1.3,3s2.1,1,3.7,1c1.8,0,3.1-0.2,4.1-0.5s1.7-0.8,2.2-1.3s0.8-1.1,1-1.8c0.1-0.7,0.2-1.3,0.2-2c0-2.3,0-4.5,0.1-6.8
		c0-2.2,0.1-4.5,0.1-6.8c0-0.2,0-0.3-0.1-0.4s-0.2-0.2-0.4-0.3c-0.2-0.1-0.6-0.2-1-0.3c-0.4-0.1-1-0.3-1.8-0.5
		c-0.3-0.1-0.6-0.2-1.1-0.4c-0.5-0.2-0.7-0.4-0.7-0.6s0.1-0.3,0.4-0.4s0.6-0.1,0.9-0.1c0.5,0,1.1,0,1.6,0.1c0.5,0,1.1,0.1,1.6,0.1
		c0.6,0,1.3,0,1.9-0.1c0.6,0,1.2-0.1,1.9-0.1c0.2,0,0.5,0.1,0.8,0.2s0.5,0.5,0.5,1.1c0,3.2,0,6.4-0.1,9.5c-0.1,3.2-0.1,6.4-0.1,9.5
		c0,0.7,0.2,1.1,0.6,1.3c0.4,0.2,0.7,0.3,1,0.3c1.2,0,2.1,0,2.6,0.1c0.5,0,0.7,0.2,0.7,0.6c0,0.2-0.1,0.4-0.3,0.5
		c-0.2,0.1-0.5,0.2-1,0.2c-2.2,0.3-4,0.6-5.3,0.9c-1.3,0.2-2.1,0.4-2.4,0.4c-0.2,0-0.4-0.1-0.4-0.3s-0.1-0.4-0.1-0.7v-1.5
		c0-0.5-0.1-0.8-0.4-0.8s-0.6,0.2-1.1,0.6s-1.1,0.8-1.8,1.3c-0.7,0.5-1.6,0.9-2.6,1.3C-42.7,45.8-43.8,46-45.1,46"/>
	<path class="st0" d="M-21.4,9.2c0-0.8-0.2-1.4-0.5-1.8s-0.7-0.6-1.1-0.8c-0.4-0.1-0.8-0.3-1.1-0.3c-0.3-0.1-0.5-0.3-0.5-0.6
		c0-0.2,0.1-0.4,0.3-0.5c0.2-0.1,0.5-0.2,1-0.4l4.3-1.6c0.2-0.1,0.3-0.1,0.5-0.1s0.4,0,0.6,0s0.3,0.1,0.5,0.2
		c0.1,0.1,0.2,0.5,0.2,0.9V30c0,0.7,0.2,1,0.6,1c0.1,0,0.4-0.1,1-0.4s1.2-0.6,2-1.1c0.8-0.4,1.6-0.9,2.4-1.5
		c0.9-0.5,1.6-1.1,2.4-1.6c0.7-0.5,1.3-1,1.8-1.4s0.7-0.7,0.7-0.9c0-0.4-0.1-0.7-0.4-1c-0.3-0.2-0.5-0.4-0.8-0.6
		c-0.3-0.1-0.6-0.3-0.8-0.4c-0.3-0.2-0.4-0.4-0.4-0.6s0.1-0.3,0.3-0.4c0.2-0.1,0.4-0.2,0.6-0.2c0.7,0,1.4,0,2.3,0.1
		c0.9,0,1.7,0.1,2.6,0.1c0.8,0,1.6,0,2.5-0.1c0.9,0,1.6-0.1,2.2-0.1c0.3,0,0.6,0,0.8,0.1C2.9,21.1,3,21.3,3,21.6
		c0,0.2-0.1,0.3-0.3,0.5c-0.2,0.1-0.5,0.3-0.9,0.4c-0.3,0.1-0.7,0.2-1,0.3c-0.4,0.1-0.6,0.2-0.9,0.3c-0.5,0.2-1.4,0.7-2.7,1.4
		c-1.3,0.7-2.7,1.5-4.1,2.4c-1.4,0.8-2.7,1.6-3.8,2.4c-1.1,0.7-1.6,1.2-1.6,1.4c0,0.2,0.1,0.4,0.2,0.5s0.2,0.3,0.3,0.3L-1,41.3
		c0.6,0.6,1.2,1,1.9,1.3c0.6,0.3,1.1,0.5,1.6,0.7s0.8,0.3,1.1,0.5C3.9,43.9,4,44.1,4,44.3c0,0.4-0.5,0.6-1.6,0.6
		c-0.7,0-1.4,0-2.2-0.1c-0.8-0.1-1.7-0.1-2.7-0.1c-0.8,0-1.6,0-2.4,0.1s-1.5,0.1-2.3,0.1c-0.7,0-1.2,0-1.5-0.1s-0.4-0.2-0.4-0.5
		s0.2-0.5,0.5-0.6s0.8-0.2,1.3-0.3c0.3,0,0.6-0.1,0.9-0.3c0.2-0.2,0.3-0.4,0.3-0.6s-0.2-0.5-0.7-1l-9.4-8.9
		c-0.3-0.3-0.4-0.4-0.6-0.4c-0.3,0-0.4,0.1-0.4,0.3v8.8c0,0.7,0.2,1.2,0.5,1.5s0.6,0.5,0.9,0.5c0.5,0.2,0.9,0.3,1.3,0.4
		s0.5,0.2,0.5,0.5s-0.2,0.4-0.5,0.5s-0.6,0.1-1,0.1c-0.8,0-1.5,0-2.2-0.1s-1.4-0.1-2.1-0.1c-0.8,0-1.6,0-2.4,0.1
		c-0.9,0.1-1.6,0.1-2.1,0.1c-0.2,0-0.5,0-0.9-0.1s-0.6-0.2-0.6-0.5s0.1-0.5,0.3-0.6c0.2-0.1,0.5-0.2,0.8-0.3
		c0.4-0.1,0.8-0.2,1.2-0.3c0.4-0.1,0.7-0.2,1-0.4c0.3-0.2,0.5-0.4,0.7-0.8c0.1-0.3,0.2-0.8,0.2-1.5V9.2"/>
	<path class="st0" d="M8.2,30.3c-0.1,0.2-0.1,0.5-0.1,0.9s0,0.8,0,1.3c0,1.4,0.1,2.7,0.3,3.9c0.2,1.3,0.7,2.4,1.3,3.4
		c0.7,1,1.6,1.8,2.8,2.4c1.2,0.6,2.8,0.9,4.7,0.9c1.2,0,2.2-0.1,2.8-0.4c0.7-0.3,1.2-0.5,1.6-0.9c0.4-0.3,0.7-0.6,0.9-0.9
		c0.2-0.3,0.4-0.4,0.7-0.4c0.4,0,0.6,0.2,0.6,0.5c0,0.1-0.2,0.5-0.5,1s-0.9,1.1-1.6,1.7c-0.8,0.6-1.7,1.2-2.9,1.7
		c-1.2,0.5-2.6,0.7-4.2,0.7c-3.5,0-6.2-1.1-8-3.4c-1.9-2.3-2.9-5.4-2.9-9.3c0-1.5,0.2-3,0.7-4.6s1.2-3,2.1-4.3s2.1-2.3,3.6-3.2
		c1.4-0.8,3.1-1.3,5.1-1.3c1.8,0,3.3,0.3,4.6,1c1.2,0.7,2.2,1.5,3,2.4s1.3,1.9,1.6,2.9s0.5,1.9,0.5,2.5s-0.1,1-0.2,1.2
		s-0.5,0.3-1,0.3L8.2,30.3 M14.3,28.4c1.4,0,2.5-0.1,3.3-0.2s1.5-0.3,2-0.5c0.5-0.3,0.8-0.6,0.9-0.9c0.1-0.4,0.2-0.9,0.2-1.5
		c0-1.1-0.4-2-1.3-2.7s-2-1.1-3.3-1.1c-1.1,0-2.2,0.2-3.1,0.7s-1.7,1.1-2.3,1.7c-0.6,0.7-1.1,1.4-1.4,2.1s-0.5,1.3-0.5,1.8
		c0,0.1,0,0.2,0.1,0.3c0.1,0.1,0.3,0.1,0.6,0.2c0.4,0,0.9,0.1,1.6,0.1C11.9,28.4,12.9,28.4,14.3,28.4z"/>
</g>
</svg>
